<svg class="svgf2" width="195" height="115" viewBox="0 0 255 150" fill="none" xmlns="http://www.w3.org/2000/svg">
                        <path d="M55.4299 94.9999V24.1799C55.4326 23.2551 55.8011 22.369 56.455 21.7151C57.109 21.0611 57.9951 20.6926 58.9199 20.6899H119.5" stroke="#FF64A0" stroke-width="2" stroke-linecap="round" stroke-linejoin="round"></path>
                        <path d="M197.2 123.94V140.89C197.197 141.815 196.829 142.701 196.175 143.355C195.521 144.009 194.635 144.377 193.71 144.38H58.9199C57.9951 144.377 57.109 144.009 56.455 143.355C55.8011 142.701 55.4326 141.815 55.4299 140.89V122.37" stroke="#FF64A0" stroke-width="2" stroke-linecap="round" stroke-linejoin="round"></path>
                        <path d="M119.5 20.6899H193.71C194.635 20.6926 195.521 21.0611 196.175 21.7151C196.829 22.369 197.197 23.2551 197.2 24.1799V86.9999" stroke="#FF64A0" stroke-width="2" stroke-linecap="round" stroke-linejoin="round"></path>
                        <path d="M135.67 60.6399H117.11C117.005 60.6399 116.901 60.661 116.804 60.7021C116.708 60.7431 116.62 60.8033 116.547 60.8789C116.475 60.9545 116.418 61.0441 116.38 61.1422C116.343 61.2404 116.326 61.345 116.33 61.4499L116.78 70.3799C116.95 70.4391 117.124 70.4892 117.3 70.5299C120.3 70.7299 122.52 70.5299 123.3 70.5299L123.85 70.4299C123.996 70.4107 124.144 70.4107 124.29 70.4299C124.448 70.0927 124.711 69.8156 125.04 69.6399C125.191 69.5526 125.357 69.4949 125.53 69.4699C126.667 69.2068 127.837 69.1192 129 69.2099C131.37 69.2099 133.72 68.9299 136.07 68.8299V68.6599L136.5 61.4499C136.503 61.3411 136.483 61.2328 136.442 61.1319C136.401 61.031 136.34 60.9396 136.262 60.8635C136.184 60.7875 136.091 60.7283 135.989 60.6899C135.887 60.6514 135.779 60.6344 135.67 60.6399Z" fill="#FF64A0" stroke="#6E55F0" stroke-width="1.7" stroke-linecap="round" stroke-linejoin="round"></path>
                        <path d="M131.25 88.23C130.43 88.13 129.62 88.01 128.83 87.9C127.923 87.7882 127.035 87.5561 126.19 87.21C125.123 88.27 123.772 88.9992 122.3 89.31C120.814 89.6736 119.289 89.8516 117.76 89.84V90.36C117.77 90.5996 117.873 90.826 118.046 90.9919C118.219 91.1577 118.45 91.2502 118.69 91.25H133.78C134.018 91.2503 134.248 91.1592 134.421 90.9955C134.594 90.8317 134.697 90.6078 134.71 90.37L134.83 88.46C133.632 88.501 132.433 88.424 131.25 88.23Z" fill="#FF64A0" stroke="#6E55F0" stroke-width="1.7" stroke-linecap="round" stroke-linejoin="round"></path>
                        <path d="M133.18 62.62H132.79C132.182 62.62 131.69 63.1125 131.69 63.72V65.96C131.69 66.5675 132.182 67.06 132.79 67.06H133.18C133.787 67.06 134.28 66.5675 134.28 65.96V63.72C134.28 63.1125 133.787 62.62 133.18 62.62Z" fill="#6E55F0"></path>
                        <path d="M171.86 85.48L172.08 84.94C184.9 72.84 188.63 62.08 188.63 62.08C176.85 39.56 147 42.58 127.07 42.64C107.14 42.7 77.29 39.56 65.52 62.08C65.52 62.08 69.98 73.59 82.81 85.69" stroke="#6E55F0" stroke-width="1.7" stroke-linecap="round" stroke-linejoin="round"></path>
                        <path d="M96.1299 109.9C96.4499 126.77 157.27 127.21 158.21 109.7" stroke="#6E55F0" stroke-width="1.7" stroke-linecap="round" stroke-linejoin="round"></path>
                        <path d="M124.37 70.34C124.37 70.34 117.11 71.65 113.77 69.48" stroke="#6E55F0" stroke-width="1.7" stroke-linecap="round" stroke-linejoin="round"></path>
                        <path d="M66.81 65C66.81 65 44.35 109.74 56.56 123.91C68.77 138.08 88 117.62 93 113C98 108.38 116.13 89.8 116.13 89.8C116.13 89.8 123.78 90.19 126.13 87.24" stroke="#6E55F0" stroke-width="1.7" stroke-linecap="round" stroke-linejoin="round"></path>
                        <path d="M116.49 66.53C116.49 66.53 111.37 67.31 102.76 72.81C94.15 78.31 68.55 94.92 68.55 94.92" stroke="#6E55F0" stroke-width="1.7" stroke-linecap="round" stroke-linejoin="round"></path>
                        <path d="M138.83 68.5C138.83 68.5 130.92 69.09 126.55 69.04C126.228 69.036 125.909 69.096 125.611 69.2163C125.313 69.3366 125.041 69.515 124.812 69.741C124.584 69.9671 124.402 70.2363 124.278 70.5331C124.154 70.8299 124.09 71.1483 124.09 71.47V71.47C124.09 72.0396 124.291 72.591 124.657 73.0278C125.022 73.4647 125.529 73.7592 126.09 73.86C129.73 74.4846 133.45 74.4846 137.09 73.86" stroke="#6E55F0" stroke-width="1.7" stroke-linecap="round" stroke-linejoin="round"></path>
                        <path d="M125.16 73.49C124.917 73.4392 124.666 73.4435 124.425 73.5025C124.184 73.5616 123.959 73.6739 123.767 73.8312C123.575 73.9885 123.421 74.1869 123.316 74.4117C123.211 74.6364 123.158 74.8819 123.16 75.13V75.46C123.16 76.1027 123.379 76.726 123.781 77.2277C124.183 77.7293 124.743 78.0793 125.37 78.22C128.989 78.9574 132.702 79.1127 136.37 78.68" stroke="#6E55F0" stroke-width="1.7" stroke-linecap="round" stroke-linejoin="round"></path>
                        <path d="M125 78.0899C124.689 77.9501 124.345 77.9004 124.008 77.9463C123.67 77.9923 123.352 78.1321 123.09 78.3499C122.846 78.6078 122.692 78.9374 122.65 79.2899C122.555 79.6595 122.539 80.0452 122.606 80.4211C122.672 80.797 122.818 81.1543 123.034 81.469C123.25 81.7836 123.531 82.0482 123.858 82.2451C124.185 82.4419 124.551 82.5663 124.93 82.6099C128.402 83.3767 131.974 83.5793 135.51 83.2099" stroke="#6E55F0" stroke-width="1.7" stroke-linecap="round" stroke-linejoin="round"></path>
                        <path d="M125.89 82.78C125.687 82.7368 125.478 82.7394 125.276 82.7877C125.075 82.836 124.886 82.9287 124.725 83.0591C124.564 83.1894 124.434 83.3542 124.345 83.5412C124.256 83.7282 124.21 83.9328 124.21 84.14V84.63C124.21 86.17 125.48 86.99 126.96 87.42C129.959 88.2676 133.079 88.6057 136.19 88.42C136.19 88.42 162.72 115.08 173.42 122.81C184.12 130.54 196.69 128.6 200.88 118.81C205.07 109.02 197.16 85.53 193.82 77.92C190.89 71.24 187.33 65.02 187.33 65.02" stroke="#6E55F0" stroke-width="1.7" stroke-linecap="round" stroke-linejoin="round"></path>
                        <path d="M136.27 66.5301C136.27 66.5301 141.39 66.0701 149.22 71.0301C157.05 75.9901 185.76 94.3801 185.76 94.3801" stroke="#6E55F0" stroke-width="1.7" stroke-linecap="round" stroke-linejoin="round"></path>
                        <path d="M97.4601 113.86C92.8401 123.26 91.6801 133.73 90.0701 143.77" stroke="#6E55F0" stroke-width="1.7" stroke-linecap="round" stroke-linejoin="round"></path>
                        <path d="M157 113.86C160.882 123.425 163.37 133.498 164.39 143.77" stroke="#6E55F0" stroke-width="1.7" stroke-linecap="round" stroke-linejoin="round"></path>
                        <path d="M123.21 75.46C121.054 75.8924 118.823 75.7825 116.72 75.14" stroke="#6E55F0" stroke-width="1.7" stroke-linecap="round" stroke-linejoin="round"></path>
                        <path d="M123.93 84.17C121.828 84.8196 119.598 84.9364 117.44 84.51" stroke="#6E55F0" stroke-width="1.7" stroke-linecap="round" stroke-linejoin="round"></path>
                        <path d="M122.23 80.33C120.393 80.5789 118.524 80.4114 116.76 79.84" stroke="#6E55F0" stroke-width="1.7" stroke-linecap="round" stroke-linejoin="round"></path>
                        <path d="M127.22 122.69C127.16 129.69 127.16 136.93 127.22 143.92" stroke="#6E55F0" stroke-width="1.7" stroke-linecap="round" stroke-linejoin="round"></path>
                        <path d="M127.88 23.85H125.97C122.921 23.85 120.45 26.3214 120.45 29.37V43.09C120.45 46.1386 122.921 48.61 125.97 48.61H127.88C130.929 48.61 133.4 46.1386 133.4 43.09V29.37C133.4 26.3214 130.929 23.85 127.88 23.85Z" fill="white" stroke="#6E55F0" stroke-width="1.7" stroke-miterlimit="10"></path>
                        <path d="M134.37 28.5199C134.018 28.5134 133.671 28.6071 133.37 28.7899V27.1699C133.365 25.453 132.68 23.8078 131.466 22.5937C130.252 21.3796 128.607 20.6952 126.89 20.6899C125.174 20.6952 123.53 21.38 122.317 22.5943C121.105 23.8087 120.423 25.4539 120.42 27.1699V28.7499C120.145 28.5971 119.835 28.5179 119.52 28.5199C119.016 28.5199 118.533 28.7201 118.177 29.0764C117.82 29.4328 117.62 29.916 117.62 30.4199C117.62 30.9239 117.82 31.4071 118.177 31.7634C118.533 32.1198 119.016 32.3199 119.52 32.3199C119.834 32.3208 120.142 32.2453 120.42 32.0999V32.8899C120.425 34.6043 121.109 36.2469 122.321 37.4591C123.533 38.6713 125.176 39.3547 126.89 39.3599C128.605 39.3547 130.249 38.6717 131.463 37.4597C132.677 36.2478 133.362 34.6052 133.37 32.8899V32.0599C133.675 32.2327 134.02 32.3224 134.37 32.3199C134.874 32.3199 135.357 32.1198 135.714 31.7634C136.07 31.4071 136.27 30.9239 136.27 30.4199C136.27 29.916 136.07 29.4328 135.714 29.0764C135.357 28.7201 134.874 28.5199 134.37 28.5199Z" fill="white" stroke="#6E55F0" stroke-width="1.7" stroke-linecap="round" stroke-linejoin="round"></path>
                        <path d="M119 22.8999C119.87 20.0099 121.56 18.1699 126.18 18.5899C130.8 19.0099 131.06 16.5399 133.39 17.3899C134.055 17.6818 134.623 18.1557 135.03 18.7568C135.437 19.358 135.666 20.062 135.69 20.7875C135.714 21.5131 135.532 22.2307 135.166 22.8574C134.8 23.4842 134.264 23.9947 133.62 24.3299C133.845 25.7414 133.912 27.1736 133.82 28.5999L133.08 28.9499C133.08 28.9499 132.69 25.5399 130.87 24.8799C129.05 24.2199 127.07 26.4699 123.58 25.2299C123.58 25.2299 121.42 23.8699 120.98 28.9499L119.78 28.5399C119.271 27.7032 118.939 26.7709 118.805 25.8008C118.671 24.8307 118.737 23.8434 119 22.8999Z" fill="#6E55F0" stroke="#6E55F0" stroke-width="1.7" stroke-linecap="round" stroke-linejoin="round"></path>
                        <path d="M124.9 34.47C125.443 34.9768 126.157 35.2587 126.9 35.2587C127.642 35.2587 128.357 34.9768 128.9 34.47" stroke="#6E55F0" stroke-width="1.7" stroke-linecap="round" stroke-linejoin="round"></path>
                        <path d="M146 5.30005C145.792 5.30136 145.587 5.34352 145.396 5.42414C145.205 5.50475 145.031 5.62224 144.886 5.76988C144.74 5.91753 144.625 6.09244 144.546 6.28464C144.468 6.47684 144.429 6.68256 144.43 6.89005V49.46L153.66 39.64C153.998 39.1939 154.435 38.8318 154.937 38.5821C155.438 38.3323 155.99 38.2016 156.55 38.2001H185.82C186.185 38.1987 186.546 38.1255 186.883 37.9846C187.22 37.8437 187.526 37.6378 187.783 37.3787C188.04 37.1197 188.244 36.8125 188.382 36.4747C188.521 36.1369 188.591 35.7751 188.59 35.41V6.89005C188.59 6.47008 188.424 6.06717 188.128 5.76927C187.832 5.47137 187.43 5.30269 187.01 5.30005H146Z" fill="white" stroke="#FF669F" stroke-width="2" stroke-linecap="round" stroke-linejoin="round"></path>
                        <path d="M167.09 16.07C166.744 15.3874 166.257 14.7865 165.66 14.3078C165.063 13.829 164.37 13.4833 163.629 13.2939C162.887 13.1046 162.114 13.0758 161.361 13.2097C160.607 13.3435 159.891 13.6369 159.26 14.07C155.64 16.62 155.85 21.36 159 24.34C161.507 26.4612 164.217 28.3302 167.09 29.92C169.967 28.3313 172.68 26.4622 175.19 24.34C178.33 21.34 178.55 16.62 174.93 14.07C174.056 13.4444 173.005 13.1119 171.93 13.12C170.922 13.1249 169.936 13.4076 169.078 13.9368C168.221 14.4661 167.526 15.2215 167.07 16.12" fill="url(#paint0_linear)"></path>
                        <path d="M66.88 35.3H64" stroke="#6E55F0" stroke-width="2.09" stroke-linecap="round" stroke-linejoin="round"></path>
                        <path d="M57.54 35.3H22.03" stroke="#6E55F0" stroke-width="2.09" stroke-linecap="round" stroke-linejoin="round" stroke-dasharray="6.46 6.46"></path>
                        <path d="M18.7999 35.3H15.9199" stroke="#6E55F0" stroke-width="2.09" stroke-linecap="round" stroke-linejoin="round"></path>
                        <path d="M69.7901 44.76H40.3501" stroke="#6E55F0" stroke-width="2.3" stroke-miterlimit="10" stroke-linecap="round"></path>
                        <path d="M227.28 46.46L230.71 43.02" stroke="#6E55F0" stroke-width="2.09" stroke-linecap="round" stroke-linejoin="round"></path>
                        <path d="M216.58 57.16L220.32 53.41" stroke="#6E55F0" stroke-width="2.09" stroke-linecap="round" stroke-linejoin="round"></path>
                        <path d="M220.6 47.05L216.19 42.64" stroke="#6E55F0" stroke-width="2.09" stroke-linecap="round" stroke-linejoin="round"></path>
                        <path d="M230.71 57.16L226.77 53.22" stroke="#6E55F0" stroke-width="2.09" stroke-linecap="round" stroke-linejoin="round"></path>
                        <defs>
                        <linearGradient id="paint0_linear" x1="156.59" y1="21.48" x2="177.59" y2="21.48" gradientUnits="userSpaceOnUse">
                        <stop stop-color="#FF64A0"></stop>
                        <stop offset="1" stop-color="#C846FF"></stop>
                        </linearGradient>
                        </defs>
                    </svg>