<svg class="svgf2" width="195" height="115" viewBox="0 0 255 150" fill="none" xmlns="http://www.w3.org/2000/svg">
                        <path d="M109.24 131.94C141.057 131.94 166.85 106.147 166.85 74.33C166.85 42.5128 141.057 16.72 109.24 16.72C77.4228 16.72 51.6299 42.5128 51.6299 74.33C51.6299 106.147 77.4228 131.94 109.24 131.94Z" stroke="#6E56ED" stroke-width="2.35" stroke-linecap="round" stroke-linejoin="round"></path>
                        <path d="M144.4 79.08C144.479 83.7478 143.627 88.3846 141.895 92.72C140.164 97.0553 137.586 101.003 134.313 104.331C131.039 107.66 127.136 110.304 122.831 112.109C118.525 113.914 113.903 114.843 109.235 114.843C104.566 114.843 99.9447 113.914 95.6391 112.109C91.3336 110.304 87.4304 107.66 84.1572 104.331C80.884 101.003 78.3064 97.0553 76.5745 92.72C74.8426 88.3846 73.9912 83.7478 74.0699 79.08V79.08C73.9912 83.7478 74.8426 88.3846 76.5745 92.72C78.3064 97.0553 80.884 101.003 84.1572 104.331C87.4304 107.66 91.3336 110.304 95.6391 112.109C99.9447 113.914 104.566 114.843 109.235 114.843C113.903 114.843 118.525 113.914 122.831 112.109C127.136 110.304 131.039 107.66 134.313 104.331C137.586 101.003 140.164 97.0553 141.895 92.72C143.627 88.3846 144.479 83.7478 144.4 79.08V79.08Z" stroke="#6E56ED" stroke-width="2.35" stroke-linecap="round" stroke-linejoin="round"></path>
                        <path d="M137.05 61.28C135.258 63.0668 132.83 64.0702 130.3 64.0702C127.769 64.0702 125.342 63.0668 123.55 61.28V61.28C125.342 63.0668 127.769 64.0702 130.3 64.0702C132.83 64.0702 135.258 63.0668 137.05 61.28V61.28Z" stroke="#6E56ED" stroke-width="2.35" stroke-linecap="round" stroke-linejoin="round"></path>
                        <path d="M84.55 60.61C84.5481 61.698 84.8694 62.762 85.4732 63.6669C86.0771 64.5719 86.9362 65.2771 87.9415 65.693C88.9468 66.1088 90.053 66.2166 91.1197 66.0027C92.1864 65.7887 93.1655 65.2626 93.9327 64.4912C94.6998 63.7198 95.2205 62.7379 95.4286 61.67C95.6367 60.6022 95.5229 59.4966 95.1015 58.4935C94.6801 57.4905 93.9703 56.6353 93.062 56.0364C92.1537 55.4376 91.0879 55.1221 90 55.13C88.5466 55.13 87.1528 55.7074 86.1251 56.7351C85.0974 57.7628 84.52 59.1566 84.52 60.61" stroke="#6E56ED" stroke-width="2.35" stroke-linecap="round" stroke-linejoin="round"></path>
                        <path d="M188.75 31.12C188.14 31.1187 187.536 31.2378 186.973 31.4705C186.409 31.7032 185.897 32.0449 185.466 32.4761C185.035 32.9072 184.693 33.4192 184.46 33.9828C184.228 34.5463 184.109 35.1503 184.11 35.76V59.92H159.91C159.304 59.9226 158.704 60.0448 158.145 60.2795C157.586 60.5142 157.079 60.8569 156.652 61.2879C156.226 61.7189 155.889 62.2297 155.66 62.7912C155.432 63.3527 155.316 63.9537 155.32 64.56V84.12C155.323 85.3356 155.807 86.5005 156.668 87.3591C157.528 88.2178 158.694 88.7 159.91 88.7H184.11V112.9C184.115 114.129 184.606 115.306 185.475 116.175C186.344 117.044 187.521 117.535 188.75 117.54H208.28C208.89 117.541 209.494 117.422 210.057 117.189C210.621 116.957 211.133 116.615 211.564 116.184C211.995 115.753 212.337 115.241 212.569 114.677C212.802 114.114 212.921 113.51 212.92 112.9V88.7H237.13C238.347 88.7 239.515 88.2184 240.379 87.3604C241.243 86.5023 241.732 85.3374 241.74 84.12V64.56C241.743 63.3337 241.259 62.1565 240.394 61.2867C239.53 60.4168 238.356 59.9253 237.13 59.92H212.92V35.76C212.924 35.1495 212.807 34.5444 212.575 33.9796C212.343 33.4149 212.001 32.9018 211.57 32.4701C211.138 32.0384 210.625 31.6968 210.06 31.4651C209.496 31.2333 208.89 31.116 208.28 31.12H188.75Z" fill="url(#paint0_linear)"></path>
                        <path d="M44.3101 87.85H10.8701" stroke="#6E55F0" stroke-width="2.3" stroke-miterlimit="10" stroke-linecap="round"></path>
                        <path d="M63.13 98.8H60.25" stroke="#6E55F0" stroke-width="2.09" stroke-linecap="round" stroke-linejoin="round"></path>
                        <path d="M54.9601 98.8H15.3101" stroke="#6E55F0" stroke-width="2.09" stroke-linecap="round" stroke-linejoin="round" stroke-dasharray="5.29 5.29"></path>
                        <path d="M12.67 98.8H9.79004" stroke="#6E55F0" stroke-width="2.09" stroke-linecap="round" stroke-linejoin="round"></path>
                        <path d="M70.3598 109.75H39.5498" stroke="#6E55F0" stroke-width="2.3" stroke-miterlimit="10" stroke-linecap="round"></path>
                        <path d="M34.5199 35.8L24.1499 46.16" stroke="#6E55F0" stroke-width="2" stroke-linecap="round" stroke-linejoin="round"></path>
                        <path d="M24.1499 35.8L34.5199 46.16" stroke="#6E55F0" stroke-width="2" stroke-linecap="round" stroke-linejoin="round"></path>
                        <defs>
                        <linearGradient id="paint0_linear" x1="155.32" y1="74.33" x2="241.74" y2="74.33" gradientUnits="userSpaceOnUse">
                        <stop stop-color="#FF64A0"></stop>
                        <stop offset="1" stop-color="#C846FF"></stop>
                        </linearGradient>
                        </defs>
                    </svg>