<svg class="svgf2" width="195" height="115" viewBox="0 0 255 150" fill="none" xmlns="http://www.w3.org/2000/svg">
                        <path d="M210.49 108.69L200.59 118.59" stroke="#6E55F0" stroke-width="2" stroke-linecap="round" stroke-linejoin="round"></path>
                        <path d="M200.59 108.69L210.49 118.59" stroke="#6E55F0" stroke-width="2" stroke-linecap="round" stroke-linejoin="round"></path>
                        <path d="M51.3799 27.8L54.6599 24.52" stroke="#6E55F0" stroke-width="2" stroke-linecap="round" stroke-linejoin="round"></path>
                        <path d="M41.1599 38.0199L44.7399 34.4399" stroke="#6E55F0" stroke-width="2" stroke-linecap="round" stroke-linejoin="round"></path>
                        <path d="M45.01 28.3599L40.79 24.1499" stroke="#6E55F0" stroke-width="2" stroke-linecap="round" stroke-linejoin="round"></path>
                        <path d="M54.6599 38.02L50.8999 34.26" stroke="#6E55F0" stroke-width="2" stroke-linecap="round" stroke-linejoin="round"></path>
                        <path d="M168.481 22.5953L168.244 22.412C165.458 20.2631 161.458 20.779 159.309 23.5645L144.875 42.2737C142.726 45.0591 143.242 49.0593 146.028 51.2082L146.265 51.3915C149.051 53.5404 153.051 53.0245 155.2 50.239L169.634 31.5298C171.783 28.7444 171.267 24.7442 168.481 22.5953Z" fill="#F8F8FA" stroke="#6E55F0" stroke-width="2" stroke-miterlimit="10"></path>
                        <path d="M176.137 33.8057L175.9 33.6225C173.114 31.4735 169.114 31.9895 166.965 34.7749L152.531 53.4842C150.382 56.2696 150.898 60.2697 153.684 62.4187L153.921 62.6019C156.707 64.7509 160.707 64.2349 162.856 61.4495L177.29 42.7402C179.439 39.9548 178.923 35.9547 176.137 33.8057Z" fill="#F8F8FA" stroke="#6E55F0" stroke-width="2" stroke-miterlimit="10"></path>
                        <path d="M180.782 49.3321L180.545 49.1488C177.76 46.9999 173.759 47.5159 171.61 50.3013L157.176 69.0105C155.027 71.796 155.543 75.7961 158.329 77.945L158.566 78.1283C161.352 80.2772 165.352 79.7613 167.501 76.9758L181.935 58.2666C184.084 55.4812 183.568 51.481 180.782 49.3321Z" fill="#F8F8FA" stroke="#6E55F0" stroke-width="2" stroke-miterlimit="10"></path>
                        <path d="M178.94 72.83C177.571 71.7768 175.841 71.3086 174.128 71.5279C172.415 71.7471 170.859 72.636 169.8 74L161.11 85.26H74.1799L82.9999 123.07L144.24 128.52L173 91.22L180.12 82C181.179 80.6272 181.649 78.8902 181.428 77.1707C181.207 75.4512 180.312 73.8899 178.94 72.83Z" fill="#F8F8FA" stroke="#6E55F0" stroke-width="2" stroke-miterlimit="10"></path>
                        <path d="M94.5999 74.0699H74.1799V123.88H94.5999V74.0699Z" fill="#F8F8FA" stroke="#6E55F0" stroke-width="2" stroke-miterlimit="10"></path>
                        <path d="M161.86 2.90991H113.52C111.151 2.90991 109.23 4.83061 109.23 7.19991V103.38C109.23 105.749 111.151 107.67 113.52 107.67H161.86C164.229 107.67 166.15 105.749 166.15 103.38V7.19991C166.15 4.83061 164.229 2.90991 161.86 2.90991Z" fill="#F8F8FA" stroke="#6E55F0" stroke-width="2" stroke-miterlimit="10"></path>
                            <path d="M109.23 8.11011H166.15" stroke="#6E55F0" stroke-width="2" stroke-miterlimit="10"></path>
                            <path d="M109.23 95.67H166.15" stroke="#6E55F0" stroke-width="2" stroke-miterlimit="10"></path>
                            <path d="M138.09 105.04C140.128 105.04 141.78 103.388 141.78 101.35C141.78 99.3121 140.128 97.66 138.09 97.66C136.052 97.66 134.4 99.3121 134.4 101.35C134.4 103.388 136.052 105.04 138.09 105.04Z" fill="#F8F8FA" stroke="#6E55F0" stroke-width="2" stroke-miterlimit="10"></path>
                            <path d="M116.23 109.23C124.68 80.14 106.23 70.31 106.23 70.31C119.54 51.59 119.93 35.26 112.42 31.83C104.91 28.4 101.35 37.36 95.6899 47.51C90.0299 57.66 82.7499 61.58 77.9999 65.83C74.1799 69.25 45.7399 98.91 77.9999 131.17C110.26 163.43 135.94 139.28 144.23 128.52" fill="#F8F8FA"></path>
                            <path d="M116.23 109.23C124.68 80.14 106.23 70.31 106.23 70.31C119.54 51.59 119.93 35.26 112.42 31.83C104.91 28.4 101.35 37.36 95.6899 47.51C90.0299 57.66 82.7499 61.58 77.9999 65.83C74.1799 69.25 45.7399 98.91 77.9999 131.17C110.26 163.43 135.94 139.28 144.23 128.52" stroke="#6E55F0" stroke-width="2" stroke-miterlimit="10"></path>
                            <path d="M85.28 100.78H24.3" stroke="#6E55F0" stroke-width="2.27" stroke-miterlimit="10" stroke-linecap="round"></path>
                            <path d="M77.9701 109.69H76.0701" stroke="#6E55F0" stroke-width="2.27" stroke-linecap="round" stroke-linejoin="round"></path>
                            <path d="M72.4399 109.69H23.3999" stroke="#6E55F0" stroke-width="2.27" stroke-linecap="round" stroke-linejoin="round" stroke-dasharray="3.63 3.63"></path>
                            <path d="M21.5899 109.69H19.6899" stroke="#6E55F0" stroke-width="2.27" stroke-linecap="round" stroke-linejoin="round"></path>
                            <path d="M81.2999 118.59H47.6299" stroke="#6E55F0" stroke-width="2.27" stroke-miterlimit="10" stroke-linecap="round"></path>
                            <path d="M147.03 34.05H128.47C125.024 34.05 122.23 36.8438 122.23 40.2901V58.85C122.23 62.2963 125.024 65.09 128.47 65.09H147.03C150.476 65.09 153.27 62.2963 153.27 58.85V40.2901C153.27 36.8438 150.476 34.05 147.03 34.05Z" fill="#FF5EAC"></path>
                            <path d="M127.82 58.9999C127.594 59.0074 127.368 58.9677 127.158 58.8833C126.948 58.799 126.758 58.6718 126.6 58.5099C126.439 58.339 126.314 58.1378 126.231 57.9181C126.149 57.6983 126.111 57.4644 126.12 57.2299C126.097 56.7343 126.269 56.2494 126.6 55.8799C126.765 55.7092 126.965 55.5755 127.185 55.4876C127.406 55.3997 127.643 55.3596 127.88 55.3699C128.105 55.3593 128.33 55.3976 128.539 55.4822C128.748 55.5668 128.936 55.6957 129.09 55.8599C129.25 56.0349 129.374 56.2399 129.455 56.463C129.535 56.6861 129.571 56.9229 129.56 57.1599C129.581 57.6491 129.409 58.127 129.08 58.4899L129.97 59.3499H128.87L128.4 58.8799C128.214 58.9484 128.018 58.9889 127.82 58.9999ZM127.82 56.0499C127.693 56.0439 127.567 56.069 127.452 56.123C127.337 56.177 127.236 56.2584 127.16 56.3599C126.981 56.5983 126.893 56.8924 126.91 57.1899C126.893 57.4842 126.982 57.775 127.16 58.0099C127.235 58.1074 127.332 58.1855 127.444 58.2377C127.555 58.2898 127.677 58.3146 127.8 58.3099C127.924 58.3166 128.047 58.2938 128.16 58.2433C128.273 58.1929 128.372 58.1163 128.45 58.0199C128.622 57.7825 128.707 57.4927 128.69 57.1999C128.706 56.8993 128.625 56.6014 128.46 56.3499C128.394 56.2486 128.306 56.1642 128.202 56.1034C128.098 56.0426 127.98 56.0071 127.86 55.9999L127.82 56.0499Z" fill="white"></path>
                            <path d="M132.09 58.8299C131.857 58.9439 131.599 58.9956 131.34 58.9799C131.168 58.9867 130.996 58.9593 130.835 58.8992C130.673 58.8391 130.526 58.7476 130.4 58.6299C130.281 58.5109 130.187 58.3688 130.126 58.2122C130.064 58.0557 130.035 57.8881 130.04 57.7199C130.03 57.5351 130.06 57.3502 130.127 57.1778C130.194 57.0053 130.298 56.8492 130.43 56.7199C130.564 56.595 130.721 56.4979 130.893 56.4344C131.064 56.3709 131.247 56.3422 131.43 56.3499C131.65 56.3336 131.871 56.375 132.07 56.4699V57.1199C131.915 57.0017 131.725 56.9384 131.53 56.9399C131.433 56.9343 131.337 56.9483 131.246 56.9809C131.155 57.0136 131.071 57.0643 131 57.1299C130.934 57.2025 130.882 57.2877 130.85 57.3805C130.817 57.4733 130.804 57.5717 130.81 57.6699C130.804 57.7642 130.817 57.8588 130.848 57.9481C130.878 58.0373 130.927 58.1196 130.99 58.1899C131.059 58.2558 131.141 58.3066 131.23 58.3393C131.32 58.372 131.415 58.3859 131.51 58.3799C131.71 58.3774 131.906 58.3147 132.07 58.1999L132.09 58.8299Z" fill="white"></path>
                            <path d="M135.11 58.9199H134.33V58.5299C134.256 58.6666 134.146 58.7807 134.012 58.8599C133.878 58.9392 133.725 58.9806 133.57 58.9799C132.99 58.9799 132.69 58.6299 132.69 57.9199V56.4099H133.47V57.8499C133.47 58.2099 133.61 58.3799 133.89 58.3799C133.952 58.3847 134.015 58.3744 134.072 58.3501C134.129 58.3257 134.18 58.2879 134.22 58.2399C134.305 58.1245 134.347 57.9831 134.34 57.8399V56.4099H135.12L135.11 58.9199Z" fill="white"></path>
                            <path d="M136.27 56C136.154 56.0016 136.041 55.9627 135.95 55.89C135.911 55.8522 135.881 55.8071 135.86 55.7572C135.84 55.7074 135.829 55.6539 135.83 55.6C135.828 55.5473 135.837 55.4947 135.858 55.4462C135.879 55.3978 135.91 55.3546 135.95 55.32C136.038 55.2431 136.153 55.2036 136.27 55.21C136.39 55.202 136.509 55.2415 136.6 55.32C136.64 55.3546 136.671 55.3978 136.692 55.4462C136.713 55.4947 136.722 55.5473 136.72 55.6C136.722 55.6541 136.712 55.7079 136.691 55.758C136.671 55.808 136.639 55.853 136.6 55.89C136.507 55.965 136.39 56.004 136.27 56ZM136.66 58.91H135.88V56.41H136.66V58.91Z" fill="white"></path>
                            <path d="M139.89 58.9199H139.11V58.57C139.03 58.7007 138.916 58.8077 138.781 58.8798C138.646 58.9519 138.493 58.9865 138.34 58.9799C138.197 58.9825 138.055 58.9543 137.924 58.8974C137.793 58.8404 137.676 58.7561 137.58 58.65C137.375 58.3847 137.272 58.0547 137.29 57.72C137.273 57.359 137.386 57.0038 137.61 56.72C137.709 56.5971 137.836 56.4995 137.981 56.4352C138.125 56.3709 138.282 56.3417 138.44 56.3499C138.574 56.3355 138.709 56.361 138.828 56.4233C138.947 56.4856 139.046 56.5819 139.11 56.7V55.2H139.89V58.9199ZM139.13 57.7V57.5099C139.135 57.359 139.082 57.2119 138.98 57.0999C138.937 57.0471 138.881 57.0052 138.819 56.9774C138.756 56.9496 138.688 56.9368 138.62 56.9399C138.54 56.9367 138.461 56.9532 138.39 56.9881C138.318 57.023 138.256 57.0752 138.21 57.1399C138.109 57.3088 138.061 57.5036 138.07 57.7C138.061 57.8806 138.11 58.0595 138.21 58.2099C138.258 58.2651 138.317 58.3092 138.384 58.3395C138.45 58.3698 138.522 58.3855 138.595 58.3855C138.668 58.3855 138.74 58.3698 138.807 58.3395C138.873 58.3092 138.932 58.2651 138.98 58.2099C139.087 58.062 139.14 57.8821 139.13 57.7Z" fill="white"></path>
                            <path d="M142.75 58.9199H142V58.5599C141.926 58.6925 141.817 58.8019 141.684 58.8761C141.552 58.9502 141.402 58.9862 141.25 58.9799C141.146 58.9866 141.041 58.9714 140.943 58.9352C140.845 58.8991 140.755 58.8427 140.68 58.7699C140.609 58.6975 140.554 58.6113 140.518 58.5167C140.482 58.4221 140.465 58.3211 140.47 58.2199C140.47 57.7299 140.75 57.4499 141.33 57.3799L142.01 57.2899C142.01 57.0099 141.86 56.8699 141.57 56.8699C141.263 56.8715 140.963 56.9656 140.71 57.1399V56.5599C140.852 56.4889 141.004 56.4384 141.16 56.4099C141.327 56.3714 141.498 56.3512 141.67 56.3499C141.816 56.3279 141.964 56.3404 142.104 56.3864C142.244 56.4324 142.371 56.5106 142.475 56.6147C142.579 56.7188 142.658 56.8459 142.704 56.9858C142.75 57.1256 142.762 57.2743 142.74 57.4199L142.75 58.9199ZM142.02 57.9199V57.7499L141.57 57.8099C141.31 57.8099 141.19 57.9499 141.19 58.1499C141.188 58.1895 141.195 58.2289 141.211 58.2653C141.226 58.3017 141.25 58.3341 141.28 58.3599C141.313 58.3914 141.352 58.4157 141.396 58.4312C141.439 58.4467 141.484 58.4531 141.53 58.4499C141.596 58.452 141.661 58.4397 141.722 58.4138C141.782 58.3879 141.836 58.349 141.88 58.2999C141.927 58.2455 141.962 58.1817 141.983 58.1128C142.003 58.0438 142.009 57.9713 142 57.8999L142.02 57.9199Z" fill="white"></path>
                            <path d="M145.94 58.9199H145.17V58.57C145.088 58.7008 144.972 58.8076 144.835 58.8796C144.698 58.9516 144.545 58.9862 144.39 58.9799C144.247 58.9825 144.105 58.9543 143.974 58.8974C143.843 58.8404 143.726 58.7561 143.63 58.65C143.429 58.3833 143.329 58.0534 143.35 57.72C143.33 57.3602 143.44 57.0052 143.66 56.72C143.759 56.5971 143.886 56.4995 144.031 56.4352C144.175 56.3709 144.332 56.3417 144.49 56.3499C144.625 56.336 144.761 56.3617 144.882 56.4239C145.003 56.486 145.103 56.5819 145.17 56.7V55.2H145.94V58.9199ZM145.18 57.7V57.5099C145.184 57.3609 145.135 57.2153 145.04 57.0999C144.993 57.0433 144.934 56.9978 144.868 56.9665C144.801 56.9352 144.729 56.919 144.655 56.919C144.582 56.919 144.509 56.9352 144.442 56.9665C144.376 56.9978 144.317 57.0433 144.27 57.0999C144.162 57.2659 144.109 57.4621 144.12 57.66C144.111 57.8406 144.16 58.0195 144.26 58.1699C144.308 58.2264 144.368 58.271 144.435 58.3005C144.503 58.33 144.576 58.3435 144.65 58.34C144.723 58.3423 144.796 58.3272 144.862 58.2959C144.928 58.2646 144.986 58.218 145.03 58.16C145.126 58.0258 145.179 57.8651 145.18 57.7Z" fill="white"></path>
                            <path d="M147.91 59C147.728 59.011 147.546 58.9857 147.375 58.9256C147.203 58.8655 147.045 58.7718 146.91 58.65C146.786 58.5162 146.691 58.3584 146.631 58.1863C146.571 58.0143 146.547 57.8318 146.56 57.65C146.545 57.4664 146.57 57.2817 146.634 57.1089C146.698 56.9361 146.799 56.7795 146.93 56.65C147.065 56.5282 147.223 56.4345 147.395 56.3744C147.566 56.3143 147.748 56.289 147.93 56.3C148.112 56.2842 148.295 56.3073 148.468 56.3676C148.64 56.4279 148.798 56.5242 148.93 56.65C149.052 56.7713 149.146 56.9167 149.208 57.0769C149.27 57.237 149.298 57.4084 149.29 57.58C149.302 57.7634 149.276 57.9473 149.212 58.1197C149.148 58.292 149.049 58.4489 148.92 58.58C148.791 58.7176 148.634 58.8262 148.46 58.8986C148.286 58.971 148.098 59.0056 147.91 59ZM147.91 57C147.828 56.9948 147.747 57.0094 147.672 57.0425C147.597 57.0756 147.531 57.1261 147.48 57.19C147.37 57.3441 147.317 57.5313 147.33 57.72C147.33 58.2 147.53 58.44 147.91 58.44C148.29 58.44 148.47 58.2 148.47 57.7C148.47 57.2 148.3 56.94 147.93 56.94L147.91 57Z" fill="white"></path>
                            <path d="M135.18 40L136.55 42.38C137.088 43.3313 137.226 44.4568 136.936 45.5102C136.645 46.5635 135.949 47.4588 135 48V48C134.532 48.2705 134.015 48.4461 133.479 48.5166C132.943 48.5871 132.399 48.5512 131.877 48.4109C131.355 48.2706 130.865 48.0288 130.437 47.6992C130.009 47.3695 129.649 46.9586 129.38 46.49L128.01 44.11" stroke="white" stroke-width="0.75" stroke-linecap="round" stroke-linejoin="round"></path>                        <path d="M128.05 44.1101C127.94 43.9224 127.869 43.715 127.84 43.4997C127.811 43.2844 127.825 43.0655 127.88 42.8555C127.936 42.6455 128.033 42.4486 128.165 42.2761C128.297 42.1035 128.462 41.9588 128.65 41.8501" stroke="white" stroke-width="0.75" stroke-linecap="round" stroke-linejoin="round"></path>
                        <path d="M135.18 40C135.072 39.8123 134.928 39.6477 134.757 39.5157C134.585 39.3838 134.389 39.2872 134.18 39.2314C133.971 39.1756 133.753 39.1618 133.538 39.1908C133.324 39.2197 133.117 39.2908 132.93 39.4" stroke="white" stroke-width="0.75" stroke-linecap="round" stroke-linejoin="round"></path>
                        <path d="M135.08 48.0699C136 49.6499 138 51.2399 139.78 50.0099C141.56 48.7799 140.78 46.9299 140.67 45.2399C140.566 44.632 140.668 44.0068 140.96 43.4633C141.251 42.9199 141.716 42.4894 142.28 42.2399C142.511 42.1475 142.759 42.1028 143.008 42.1084C143.257 42.114 143.502 42.1698 143.729 42.2725C143.956 42.3753 144.16 42.5228 144.329 42.7062C144.497 42.8896 144.627 43.1051 144.71 43.3399" stroke="white" stroke-width="0.75" stroke-linecap="round" stroke-linejoin="round"></path>
                        <path d="M145.31 46.2901C146.067 46.2901 146.68 45.6767 146.68 44.92C146.68 44.1634 146.067 43.55 145.31 43.55C144.553 43.55 143.94 44.1634 143.94 44.92C143.94 45.6767 144.553 46.2901 145.31 46.2901Z" fill="white" stroke="white" stroke-width="0.75" stroke-linecap="round" stroke-linejoin="round"></path>
                        <path d="M145.13 45.5801C145.043 45.5596 144.961 45.5204 144.89 45.4652C144.819 45.4099 144.761 45.3399 144.72 45.2601C144.672 45.1833 144.641 45.0972 144.629 45.0076C144.617 44.918 144.624 44.8268 144.65 44.7401C144.672 44.6518 144.711 44.569 144.766 44.4967C144.821 44.4244 144.891 44.3643 144.97 44.3201C145.129 44.2331 145.314 44.2082 145.49 44.2501" fill="white"></path>
                        <path d="M145.13 45.5801C145.043 45.5596 144.961 45.5204 144.89 45.4652C144.819 45.4099 144.761 45.3399 144.72 45.2601C144.672 45.1833 144.641 45.0972 144.629 45.0076C144.617 44.918 144.624 44.8268 144.65 44.7401C144.672 44.6518 144.711 44.569 144.766 44.4967C144.821 44.4244 144.891 44.3643 144.97 44.3201C145.129 44.2331 145.314 44.2082 145.49 44.2501" stroke="white" stroke-width="0.75" stroke-linecap="round" stroke-linejoin="round"></path>
                        <path d="M128.65 42.4001C128.954 42.4001 129.2 42.1538 129.2 41.85C129.2 41.5463 128.954 41.3 128.65 41.3C128.346 41.3 128.1 41.5463 128.1 41.85C128.1 42.1538 128.346 42.4001 128.65 42.4001Z" fill="white" stroke="white" stroke-width="0.75" stroke-linecap="round" stroke-linejoin="round"></path>
                        <path d="M132.93 39.9301C133.234 39.9301 133.48 39.6838 133.48 39.3801C133.48 39.0763 133.234 38.8301 132.93 38.8301C132.626 38.8301 132.38 39.0763 132.38 39.3801C132.38 39.6838 132.626 39.9301 132.93 39.9301Z" fill="white" stroke="white" stroke-width="0.75" stroke-linecap="round" stroke-linejoin="round"></path>
                    </svg>